# AST/ASF file generated using VICON BodyLanguage
# -----------------------------------------------
:version 1.10
:name VICON
:units
  mass 1.0
  length 0.45
  angle deg
:documentation
   .ast/.asf automatically generated from VICON data using
   VICON BodyBuilder and BodyLanguage model FoxedUp or BRILLIANT.MOD
:root
   order TX TY TZ RX RY RZ
   axis XYZ
   position 0 0 0  
   orientation 0 -0 0 
:bonedata
  begin
     id 1 
     name lhipjoint
     direction 0.500677 -0.737119 0.453848 
     length 2.34727 
     axis 0 -0 0  XYZ
  end
  begin
     id 2 
     name lfemur
     direction 0.34202 -0.939693 0  
     length 7.53653  
     axis 0 -0 20  XYZ
    dof rx ry rz
    limits (-160.0 20.0)
           (-70.0 70.0)
           (-60.0 70.0)
  end
  begin
     id 3 
     name ltibia
     direction 0.34202 -0.939693 0   
     length 6.85572   
     axis 0 -0 20   XYZ
    dof rx
    limits (-10.0 170.0)
  end
  begin
     id 4 
     name lfoot
     direction 0.155313 -0.426718 0.890949   
     length 2.18324   
     axis -90 -1.13533e-015 20   XYZ
    dof rx rz
    limits (-45.0 90.0)
           (-70.0 20.0)
  end
  begin
     id 5 
     name ltoes
     direction 1.53474e-011 -4.21647e-011 1   
     length 1.06748   
     axis -90 -1.13533e-015 20   XYZ
    dof rx
    limits (-90.0 20.0)
  end
  begin
     id 6 
     name rhipjoint
     direction -0.632471 -0.659587 0.406111   
     length 2.62319  
     axis 0 -0 0  XYZ 
  end
  begin
     id 7 
     name rfemur
     direction -0.34202 -0.939693 0   
     length 7.21735   
     axis 0 -0 -20   XYZ
    dof rx ry rz
    limits (-160.0 20.0)
           (-70.0 70.0)
           (-70.0 60.0)
  end
  begin
     id 8 
     name rtibia
     direction -0.34202 -0.939693 0   
     length 7.02558   
     axis 0 -0 -20   XYZ
    dof rx
    limits (-10.0 170.0)
 end
 begin
     id 9 
     name rfoot
     direction -0.16057 -0.441164 0.882945   
     length 2.10014  
     axis -90 1.13533e-015 -20   XYZ
    dof rx rz
    limits (-45.0 90.0)
           (-20.0 70.0)
  end
  begin
     id 10 
     name rtoes
     direction -1.53553e-011 -4.2192e-011 1   
     length 1.02554   
     axis -90 1.13533e-015 -20   XYZ
    dof rx
    limits (-90.0 20.0)
  end
  begin
     id 11 
     name lowerback
     direction 0.0401429 0.998861 -0.0258085   
     length 1.80848   
     axis 0 -0 0   XYZ
    dof rx ry rz
    limits (-20.0 45.0)
           (-30.0 30.0)
           (-30.0 30.0)
  end
  begin
     id 12 
     name upperback
     direction -0.0130978 0.999914 -0.000352645   
     length 1.8116   
     axis 0 -0 0   XYZ
    dof rx ry rz
    limits (-20.0 45.0)
           (-30.0 30.0)
           (-30.0 30.0)
  end
  begin
     id 13 
     name thorax
     direction -0.0300198 0.999453 0.0138573   
     length 1.81778   
     axis 0 -0 0   XYZ
    dof rx ry rz
    limits (-20.0 45.0)
           (-30.0 30.0)
           (-30.0 30.0)
  end
  begin
     id 14 
     name lowerneck
     direction -0.0401726 0.999191 -0.00173647   
     length 2.10594   
     axis 0 -0 0   XYZ
    dof rx ry rz
    limits (-20.0 45.0)
           (-30.0 30.0)
           (-30.0 30.0)
  end
  begin
     id 15 
     name upperneck
     direction 0.0119835 0.998501 0.0534085   
     length 2.07325   
     axis 0 -0 0   XYZ
    dof rx ry rz
    limits (-20.0 45.0)
           (-30.0 30.0)
           (-30.0 30.0)
  end
  begin
     id 16
     name head
     direction 0.00628309 0.999826 0.0175921  
     length 2.15096  
     axis 0 -0 0   XYZ
    dof rx ry rz
    limits (-20.0 45.0)
           (-30.0 30.0)
           (-30.0 30.0)
  end
  begin
     id 17 
     name lclavicle
     direction 0.895501 0.429681 -0.115981  
     length 4.18092  
     axis 0 -0 0   XYZ
    dof ry rz
    limits (-20.0 10.0)
           (0.0 20.0)
  end
  begin
     id 18 
     name lhumerus
     direction 1 -4.48961e-011 -3.38433e-028   
     length 5.77237   
     axis 180 -30 -90   XYZ
    dof rx ry rz
    limits (-60.0 90.0)
           (-90.0 90.0)
           (-90.0 90.0)
  end
  begin
     id 19
     name lradius
     direction 1 -4.4901e-011 1.11983e-026   
     length 2.91878   
     axis 180 -30 -90   XYZ
    dof rx
    limits (-10.0 170.0)
  end
  begin
     id 20
     name lwrist
     direction 1 -4.48934e-011 1.88176e-026   
     length 1.45939   
     axis -1.23311e-014 90 90   XYZ
    dof ry
    limits (-180.0 0.0)
 end
  begin
     id 21 
     name lhand
     direction 1 -4.4895e-011 3.76352e-026   
     length 1.06566   
     axis -2.40147e-014 90 90   XYZ
    dof rx rz
    limits (-90.0 90.0)
           (-45.0 45.0)
  end
  begin
     id 22 
     name lfingers
     direction 1 -4.49005e-011 7.52705e-026   
     length 0.859162   
     axis -4.80295e-014 90 90   XYZ
    dof rx
    limits (0.0 90.0)
  end
  begin
     id 23
     name lthumb
     direction 0.707107 -6.34885e-011 0.707107   
     length 1.23359   
     axis -90 45 -9.86935e-015   XYZ
    dof rx rz
    limits (-45.0 45.0)
           (-45.0 45.0)
  end
  begin
     id 24 
     name rclavicle
     direction -0.91006 0.40451 -0.0903492   
     length 4.23293  
     axis 0 -0 0   XYZ 
    dof ry rz
    limits (-10.0 20.0)
           (-20.0 0.0)
  end
  begin
     id 25 
     name rhumerus
     direction -1 -4.4897e-011 1.7415e-027  
     length 5.49854   
     axis 180 30 90   XYZ
    dof rx ry rz
    limits (-90.0 60.0)
           (-90.0 90.0)
           (-90.0 90.0)
  end
  begin
     id 26 
     name rradius
     direction -1 -4.48963e-011 1.21259e-026   
     length 3.1186   
     axis 180 30 90   XYZ
    dof rx
    limits (-10.0 170.0)
  end
  begin
     id 27 
     name rwrist
     direction -1 -4.48967e-011 1.88176e-026   
     length 1.5593   
     axis -1.23311e-014 -90 -90   XYZ
    dof ry
    limits (-180.0 0.0)
  end
  begin
     id 28
     name rhand
     direction -1 -4.4895e-011 3.76352e-026   
     length 0.71207   
     axis -2.40147e-014 -90 -90   XYZ
    dof rx rz
    limits (-90.0 90.0)
           (-45.0 45.0)
  end
  begin
     id 29
     name rfingers
     direction -1 -4.49005e-011 7.52705e-026   
     length 0.574089   
     axis -4.80295e-014 -90 -90   XYZ
    dof rx
    limits (0.0 90.0)
  end
  begin
     id 30
     name rthumb
     direction -0.707107 -6.34982e-011 0.707107   
     length 0.824281   
     axis -90 -45 9.86935e-015   XYZ
    dof rx rz
    limits (-45.0 45.0)
           (-45.0 45.0)
  end
:hierarchy
  begin
    root lhipjoint rhipjoint lowerback
    lhipjoint lfemur
    lfemur ltibia
    ltibia lfoot
    lfoot ltoes
    rhipjoint rfemur
    rfemur rtibia
    rtibia rfoot
    rfoot rtoes
    lowerback upperback
    upperback thorax
    thorax lowerneck lclavicle rclavicle
    lowerneck upperneck
    upperneck head
    lclavicle lhumerus
    lhumerus lradius
    lradius lwrist
    lwrist lhand lthumb
    lhand lfingers
    rclavicle rhumerus
    rhumerus rradius
    rradius rwrist
    rwrist rhand rthumb
    rhand rfingers
  end

#!OML:ASF C:\ViconDB\ViconDB\414\Spring2016\042216\male.ASF
:FULLY-SPECIFIED
:DEGREES
576
root 31.2724 17.5223 -1.45663 -532.768 24.1222 -175.25
lowerback 0.757636 -2.45476 10.229
upperback -0.557208 -3.09863 0.255893
thorax -1.54123 -1.62405 -5.3837
lowerneck 0.229216 2.6988 -8.54753
upperneck -7.56876 3.59894 -0.626796
head -2.61661 2.14532 1.17713
rclavicle 5.14391e-014 -2.00548e-014
rhumerus -17.3602 -14.4909 -45.6783
rradius 71.9128
rwrist -6.00867
rhand 3.64248 -26.7399
rfingers 7.12502
rthumb 29.0743 -54.4908
lclavicle 5.14391e-014 -2.00548e-014
lhumerus -34.8547 30.6092 34.3063
lradius 76.8788
lwrist 29.7129
lhand -23.7288 16.6355
lfingers 7.12502
lthumb 2.73923 46.5977
rfemur -9.9333 7.50579 26.8801
rtibia 23.1816
rfoot -14.4318 -0.791739
rtoes -16.325
lfemur -19.9329 7.60834 -14.8278
ltibia 46.4792
lfoot -28.7089 3.05055
ltoes -18.2481
577
root 31.2836 17.4351 -1.45282 -532.901 24.0427 -175.19
lowerback 0.808397 -2.47138 10.1719
upperback -0.543111 -3.11593 0.272112
thorax -1.55385 -1.63202 -5.33218
lowerneck 0.552806 2.68439 -8.46061
upperneck -7.65675 3.5375 -0.720787
head -2.69823 2.11727 1.12877
rclavicle 1.07156e-013 -2.55625e-014
rhumerus -17.0099 -14.4699 -45.2036
rradius 72.3069
rwrist -5.88997
rhand 3.7515 -26.8283
rfingers 7.12502
rthumb 29.1784 -54.5613
lclavicle 1.07156e-013 -2.55625e-014
lhumerus -35.0358 30.5209 35.0813
lradius 76.4094
lwrist 30.3755
lhand -24.0275 16.0843
lfingers 7.12502
lthumb 2.45079 46.05
rfemur -10.1392 8.129 27.0747
rtibia 24.2603
rfoot -16.044 -1.63657
rtoes -14.3149
lfemur -18.6009 6.6564 -14.8947
ltibia 44.397
lfoot -27.6524 3.21149
ltoes -18.5847
578
root 31.2966 17.3483 -1.44694 -533.01 23.9022 -175.178
lowerback 0.821636 -2.53291 10.011
upperback -0.534809 -3.19982 0.280034
thorax -1.55689 -1.67255 -5.23027
lowerneck 0.77459 2.71914 -8.3324
upperneck -7.64226 3.55738 -0.715494
head -2.73165 2.11972 1.10523
rclavicle 6.28936e-014 1.14177e-014
rhumerus -16.7085 -14.4735 -45.0143
rradius 72.6819
rwrist -5.45115
rhand 3.8773 -26.9405
rfingers 7.12502
rthumb 29.2985 -54.6525
lclavicle 6.28936e-014 1.14177e-014
lhumerus -35.3313 30.7337 35.648
lradius 75.8647
lwrist 28.9996
lhand -22.361 16.7375
lfingers 7.12502
lthumb 4.06017 46.6786
rfemur -10.2834 8.24015 27.2651
rtibia 25.0982
rfoot -17.7089 -2.35979
rtoes -13.7768
lfemur -17.4537 5.85865 -15.0337
ltibia 42.5041
lfoot -27.4327 2.60637
ltoes -10.0918
579
root 31.3118 17.292 -1.44372 -533.084 23.878 -175.104
lowerback 0.790137 -2.51969 9.91232
upperback -0.504089 -3.19044 0.2671
thorax -1.50042 -1.66385 -5.19156
lowerneck 0.896297 2.68451 -8.3874
upperneck -7.46829 3.5039 -0.412708
head -2.70273 2.07374 1.21569
rclavicle -8.48562e-015 -2.49972e-014
rhumerus -16.5759 -14.5826 -45.0446
rradius 73.0461
rwrist -5.02436
rhand 3.70134 -27.4076
rfingers 7.12502
rthumb 29.1305 -55.1489
lclavicle -8.48562e-015 -2.49972e-014
lhumerus -35.562 30.514 36.5707
lradius 75.2449
lwrist 28.5606
lhand -21.8401 17.0205
lfingers 7.12502
lthumb 4.56319 46.9513
rfemur -10.308 8.42478 27.4679
rtibia 25.695
rfoot -19.0883 -2.80613
rtoes -12.5087
lfemur -16.1311 5.12264 -15.1558
ltibia 40.7737
lfoot -31.5275 3.05804
ltoes -13.7803
580
root 31.3198 17.2374 -1.44003 -533.127 23.7816 -174.876
lowerback 0.847396 -2.59076 9.95399
upperback -0.472896 -3.27589 0.341382
thorax -1.51224 -1.70442 -5.13169
lowerneck 1.09913 2.71204 -8.2158
upperneck -7.46674 3.5165 -0.463584
head -2.73401 2.07419 1.16644
rclavicle 1.5002e-014 -3.07619e-014
rhumerus -16.3427 -14.6187 -45.3756
rradius 73.2688
rwrist -4.39112
rhand 3.66019 -27.7117
rfingers 7.12502
rthumb 29.0912 -55.4597
lclavicle 1.5002e-014 -3.07619e-014
lhumerus -35.9863 30.1382 37.6715
lradius 74.6657
lwrist 28.7138
lhand -22.016 16.5261
lfingers 7.12502
lthumb 4.39329 46.4605
rfemur -10.1766 8.32269 27.8083
rtibia 26.0362
rfoot -20.1856 -2.98779
rtoes -11.6414
lfemur -14.8292 3.9698 -15.0946
ltibia 39.1734
lfoot -33.861 6.53496
ltoes -17.6697
581
root 31.3345 17.2075 -1.4415 -533.178 23.6964 -174.926
lowerback 0.759351 -2.64463 9.60486
upperback -0.481191 -3.36117 0.413708
thorax -1.45974 -1.74136 -4.86233
lowerneck 1.40534 2.77691 -8.18138
upperneck -7.57333 3.56838 -0.45708
head -2.82861 2.10071 1.15696
rclavicle 1.216e-014 1.16289e-014
rhumerus -16.3428 -14.5394 -45.8801
rradius 73.5384
rwrist -3.8142
rhand 3.40037 -27.9271
rfingers 7.12502
rthumb 28.8431 -55.7177
lclavicle 1.216e-014 1.16289e-014
lhumerus -36.4668 29.5077 39.0214
lradius 73.908
lwrist 28.9563
lhand -22.4389 16.1737
lfingers 7.12502
lthumb 3.98499 46.1161
rfemur -10.0964 8.07912 27.8419
rtibia 26.0973
rfoot -20.5012 -2.8975
rtoes -11.755
lfemur -13.6537 2.50102 -15.3605
ltibia 37.685
lfoot -34.6696 9.02107
ltoes -13.9344
582
root 31.3414 17.2037 -1.44705 -533.146 23.7598 -174.811
lowerback 0.696688 -2.65445 9.52797
upperback -0.439234 -3.3833 0.460344
thorax -1.3766 -1.74589 -4.77449
lowerneck 1.69499 2.85168 -8.00762
upperneck -7.83669 3.63774 -0.54203
head -2.9681 2.1418 1.0914
rclavicle -6.46889e-014 -1.02871e-014
rhumerus -16.4481 -14.6524 -46.8074
rradius 73.8296
rwrist -3.19129
rhand 3.43005 -28.036
rfingers 7.12502
rthumb 28.8714 -55.8218
lclavicle -6.46889e-014 -1.02871e-014
lhumerus -36.928 28.9551 40.5332
lradius 73.1725
lwrist 28.9489
lhand -22.8407 16.1185
lfingers 7.12502
lthumb 3.59691 46.0679
rfemur -10.087 7.6219 27.9798
rtibia 26.0599
rfoot -20.4375 -2.52897
rtoes -12.0272
lfemur -12.709 0.807337 -15.5872
ltibia 36.2632
lfoot -35.3649 11.6284
ltoes -14.4073
583
root 31.3497 17.2195 -1.45179 -532.957 23.7897 -174.706
lowerback 0.510551 -2.72515 9.29854
upperback -0.432974 -3.49682 0.595342
thorax -1.2601 -1.79332 -4.51183
lowerneck 1.83153 2.97864 -7.91304
upperneck -8.02215 3.78939 -0.684538
head -3.05686 2.22645 1.01951
rclavicle -6.11139e-014 -2.2413e-014
rhumerus -16.5795 -14.6844 -48.1483
rradius 74.0451
rwrist -2.62108
rhand 3.52516 -27.7797
rfingers 7.12502
rthumb 28.9623 -55.5499
lclavicle -6.11139e-014 -2.2413e-014
lhumerus -37.6148 28.492 42.2208
lradius 72.3542
lwrist 28.7807
lhand -23.4289 16.1801
lfingers 7.12502
lthumb 3.0289 46.1383
rfemur -10.2113 6.96434 28.026
rtibia 25.9026
rfoot -20.2844 -1.74743
rtoes -11.8092
lfemur -12.1665 -1.29625 -15.8785
ltibia 35.0593
lfoot -35.1549 14.4811
ltoes -15.7636
584
root 31.3524 17.2555 -1.45447 -532.806 23.7892 -174.926
lowerback 0.214041 -2.77947 8.80222
upperback -0.386559 -3.60927 0.658896
thorax -1.02562 -1.83541 -4.18389
lowerneck 1.79089 3.07574 -7.84863
upperneck -8.20898 3.92108 -0.835597
head -3.11243 2.30434 0.952673
rclavicle 2.88471e-014 -9.46712e-015
rhumerus -16.8379 -14.9476 -49.7246
rradius 74.1417
rwrist -2.06111
rhand 3.61083 -27.3753
rfingers 7.12502
rthumb 29.0441 -55.1315
lclavicle 2.88471e-014 -9.46712e-015
lhumerus -38.029 27.6672 44.3522
lradius 71.1064
lwrist 28.9473
lhand -24.3271 15.9113
lfingers 7.12502
lthumb 2.16147 45.8801
rfemur -10.4418 6.06538 27.654
rtibia 25.7226
rfoot -20.2587 -0.509078
rtoes -11.3257
lfemur -11.9104 -3.87225 -16.545
ltibia 34.1739
lfoot -34.2851 17.5696
ltoes -15.098
585
root 31.3502 17.2834 -1.44701 -532.819 23.6877 -175.473
lowerback -0.0559247 -2.89282 8.04915
upperback -0.287331 -3.80501 0.587382
thorax -0.752149 -1.91989 -3.8533
lowerneck 1.68329 3.18482 -7.75622
upperneck -8.44947 4.08066 -0.932946
head -3.17543 2.39549 0.897943
rclavicle -3.13365e-014 -1.91579e-014
rhumerus -17.2744 -15.3125 -51.7415
rradius 74.2026
rwrist -1.79508
rhand 3.62772 -27.0056
rfingers 7.12502
rthumb 29.0602 -54.759
lclavicle -3.13365e-014 -1.91579e-014
lhumerus -38.2905 27.0392 46.586
lradius 69.2322
lwrist 28.7049
lhand -24.9839 14.9634
lfingers 7.12502
lthumb 1.5271 44.9377
rfemur -10.769 5.05996 26.9514
rtibia 25.703
rfoot -20.1623 0.79793
rtoes -10.4408
lfemur -11.8756 -5.74201 -17.3184
ltibia 33.5807
lfoot -33.7816 18.9175
ltoes -14.9284
586
root 31.3408 17.3021 -1.43599 -533.148 23.5561 -176.439
lowerback -0.067756 -3.0697 6.95392
upperback -0.234867 -4.06037 0.389497
thorax -0.660163 -2.04518 -3.44728
lowerneck 1.53712 3.32164 -7.76725
upperneck -8.5098 4.28415 -0.861109
head -3.1791 2.49663 0.917457
rclavicle 8.731e-015 -1.25731e-014
rhumerus -17.905 -15.6525 -53.9455
rradius 73.8173
rwrist -1.5756
rhand 3.62456 -26.1969
rfingers 7.12502
rthumb 29.0572 -53.9508
lclavicle 8.731e-015 -1.25731e-014
lhumerus -38.6831 26.6295 48.8941
lradius 67.0753
lwrist 27.5942
lhand -25.2604 14.4886
lfingers 7.12502
lthumb 1.26002 44.4646
rfemur -11.0863 4.1553 25.8457
rtibia 25.9501
rfoot -20.1317 1.90119
rtoes -10.3156
lfemur -11.9005 -6.091 -18.3329
ltibia 33.1906
lfoot -33.0326 19.116
ltoes -14.4548
587
root 31.3316 17.3176 -1.4191 -533.492 23.4158 -177.218
lowerback 0.147971 -3.20095 6.06271
upperback -0.216467 -4.23219 0.186996
thorax -0.731081 -2.13431 -3.14557
lowerneck 1.25297 3.38412 -7.77528
upperneck -8.32889 4.40537 -0.691812
head -3.07354 2.54322 0.976255
rclavicle 2.40716e-014 -8.44835e-015
rhumerus -18.8115 -16.0963 -56.2364
rradius 73.051
rwrist -1.68315
rhand 3.6938 -25.4463
rfingers 7.12502
rthumb 29.1233 -53.1888
lclavicle 2.40716e-014 -8.44835e-015
lhumerus -38.936 25.7892 51.385
lradius 64.478
lwrist 26.6155
lhand -25.3682 14.1114
lfingers 7.12502
lthumb 1.15598 44.088
rfemur -11.4216 3.36975 25.0077
rtibia 26.4408
rfoot -20.1663 2.58729
rtoes -10.2807
lfemur -11.8799 -6.41057 -19.0711
ltibia 32.9233
lfoot -32.3026 19.1432
ltoes -13.5357
588
root 31.3253 17.3352 -1.40184 -533.702 23.278 -177.916
lowerback 0.37047 -3.29541 5.29292
upperback -0.290849 -4.35341 -0.0446112
thorax -0.904515 -2.20158 -2.93707
lowerneck 0.680637 3.40776 -7.80193
upperneck -7.69214 4.50642 -0.341175
head -2.76573 2.55629 1.10707
rclavicle 1.93567e-014 -6.4605e-015
rhumerus -19.9329 -16.422 -58.5027
rradius 71.8261
rwrist -1.96789
rhand 3.64572 -24.7866
rfingers 7.12502
rthumb 29.0774 -52.537
lclavicle 1.93567e-014 -6.4605e-015
lhumerus -39.0443 24.8121 53.9368
lradius 61.3412
lwrist 25.2319
lhand -24.9283 14.29
lfingers 7.12502
lthumb 1.5808 44.2639
rfemur -11.8795 3.29323 24.3028
rtibia 27.0653
rfoot -20.2443 2.42604
rtoes -10.6304
lfemur -12.0435 -5.4457 -19.6121
ltibia 32.7166
lfoot -32.0181 17.8269
ltoes -14.0633
589
root 31.3201 17.3532 -1.38996 -533.835 23.1924 -178.423
lowerback 0.608849 -3.30458 4.81745
upperback -0.41881 -4.35846 -0.287088
thorax -1.15334 -2.21252 -2.90201
lowerneck 0.213368 3.33834 -7.83347
upperneck -7.02683 4.46986 0.0614314
head -2.4684 2.50034 1.25755
rclavicle -1.9133e-014 -2.5842e-015
rhumerus -21.2669 -16.7429 -60.6862
rradius 70.1155
rwrist -2.1001
rhand 3.61918 -24.3842
rfingers 7.12502
rthumb 29.0521 -52.139
lclavicle -1.9133e-014 -2.5842e-015
lhumerus -39.1449 23.3371 56.6654
lradius 58.1506
lwrist 24.3112
lhand -24.4555 14.7245
lfingers 7.12502
lthumb 2.03744 44.6945
rfemur -12.2759 3.45456 23.7675
rtibia 27.626
rfoot -20.2889 2.11174
rtoes -11.0648
lfemur -12.1862 -4.98344 -19.9992
ltibia 32.5951
lfoot -31.8084 16.8157
ltoes -13.7768
590
root 31.3132 17.37 -1.3824 -533.773 23.1832 -178.757
lowerback 0.747489 -3.30439 4.52134
upperback -0.61253 -4.35297 -0.458107
thorax -1.42105 -2.21836 -2.89708
lowerneck -0.457028 3.29078 -7.95917
upperneck -6.09733 4.47812 0.522105
head -2.05852 2.46203 1.44572
rclavicle 1.18028e-015 3.57812e-015
rhumerus -22.451 -16.4725 -62.8244
rradius 67.8964
rwrist -2.79047
rhand 2.91393 -24.6964
rfingers 7.12502
rthumb 28.3783 -52.5654
lclavicle 1.18028e-015 3.57812e-015
lhumerus -39.2813 21.6237 59.5757
lradius 55.2483
lwrist 24.1182
lhand -23.7853 16.6544
lfingers 7.12502
lthumb 2.68472 46.6172
rfemur -12.7343 4.10908 23.3787
rtibia 28.0703
rfoot -20.2828 1.51276
rtoes -11.211
lfemur -12.494 -4.29074 -20.2002
ltibia 32.5371
lfoot -31.441 15.7572
ltoes -13.8886
